<?xml version="1.0" standalone="no"?>
<!DOCTYPE svg PUBLIC "-//W3C//DTD SVG 20010904//EN"
 "http://www.w3.org/TR/2001/REC-SVG-20010904/DTD/svg10.dtd">
<svg version="1.0" xmlns="http://www.w3.org/2000/svg"
 width="225.000000pt" height="225.000000pt" viewBox="0 0 225.000000 225.000000"
 preserveAspectRatio="xMidYMid meet">

<g transform="translate(0.000000,225.000000) scale(0.100000,-0.100000)"
fill="#000000" stroke="none">
<path d="M1031 2016 c-127 -129 -140 -171 -68 -238 23 -22 61 -53 84 -69 48
-33 61 -66 61 -154 0 -61 -2 -60 -13 6 -4 30 -16 45 -63 80 -31 24 -69 56 -84
72 l-28 29 0 -146 c0 -184 5 -198 100 -267 39 -28 75 -61 79 -73 5 -11 8 -50
8 -86 1 -36 -1 -54 -3 -40 -3 14 -7 35 -9 47 -3 13 -31 42 -63 65 -31 23 -69
55 -84 71 l-28 29 0 -156 c0 -177 14 -233 72 -293 42 -43 89 -56 158 -43 67
13 117 50 144 109 18 40 21 68 24 211 l4 165 -39 -36 c-21 -20 -59 -53 -85
-74 -44 -34 -48 -41 -48 -81 0 -24 -4 -44 -10 -44 -16 0 -12 127 5 160 8 16
34 42 58 59 23 16 58 43 77 61 l35 31 3 162 3 161 -23 -24 c-13 -14 -52 -46
-86 -72 -60 -46 -62 -50 -62 -93 0 -25 -4 -45 -10 -45 -14 0 -13 123 1 154 7
14 47 52 89 85 57 44 80 68 85 91 12 54 3 68 -117 195 l-76 82 -91 -91z m218
-1013 c6 -13 11 -25 11 -27 0 -5 -181 3 -189 8 -3 2 -25 1 -49 -4 -47 -8 -50
-5 -21 29 16 20 31 25 86 27 36 2 68 5 70 7 2 2 21 -1 42 -6 26 -7 43 -19 50
-34z m-114 -63 c-5 -8 -11 -8 -17 -2 -6 6 -7 16 -3 22 5 8 11 8 17 2 6 -6 7
-16 3 -22z m90 10 c26 -6 22 -8 -23 -9 -33 -1 -51 3 -47 9 7 11 26 11 70 0z
m-142 -7 c-7 -2 -21 -2 -30 0 -10 3 -4 5 12 5 17 0 24 -2 18 -5z"/>
<path d="M723 1675 c-268 -217 -345 -541 -201 -845 55 -115 178 -240 294 -298
258 -129 584 -81 778 116 77 78 107 120 147 206 57 122 74 281 44 421 -19 88
-79 214 -136 284 -37 45 -208 191 -224 191 -3 0 -5 -66 -5 -146 l0 -146 33
-41 c79 -99 107 -175 107 -294 0 -254 -249 -466 -497 -423 -87 15 -143 40
-209 93 -65 52 -116 128 -145 214 -42 126 -6 306 80 398 16 17 32 38 37 47 10
19 6 298 -4 297 -4 0 -48 -33 -99 -74z m978 -653 c-7 -2 -18 2 -26 8 -12 10
-15 10 -15 0 0 -8 -3 -11 -6 -7 -15 15 8 26 32 15 15 -7 21 -14 15 -16z
m-1091 -2 c0 -5 -9 -14 -19 -20 -25 -13 -31 -13 -31 0 0 6 9 10 21 10 11 0 17
5 14 10 -3 6 -1 10 4 10 6 0 11 -4 11 -10z m1095 -33 c7 -6 3 -8 -12 -4 -27 6
-42 -11 -22 -25 12 -8 11 -9 -1 -5 -9 2 -14 14 -13 26 2 13 -1 20 -7 16 -6 -3
-10 -1 -10 5 0 12 50 3 65 -13z m-1067 -69 c-17 -10 -38 -10 -38 1 0 5 6 8 13
7 6 0 12 4 12 9 0 10 -3 10 -45 0 -20 -4 -19 -2 8 12 17 9 32 20 32 25 0 5 -9
4 -21 -2 -11 -6 -25 -9 -32 -7 -7 3 0 8 16 12 15 4 27 12 27 19 1 6 10 -7 20
-28 16 -31 17 -42 8 -48z m998 47 c-3 -8 2 -19 12 -24 9 -5 15 -12 12 -14 -11
-11 -40 21 -34 37 3 9 8 16 11 16 3 0 3 -7 -1 -15z m-14 -53 c-20 -6 -14 -20
16 -37 20 -12 22 -14 5 -10 -13 4 -23 1 -26 -7 -2 -7 -3 -5 -2 4 5 27 -13 31
-26 6 -10 -19 -8 -25 12 -42 13 -12 22 -20 20 -19 -2 2 -10 -2 -18 -9 -11 -9
-12 -7 -7 7 5 13 3 16 -7 13 -8 -3 -13 -11 -11 -17 1 -6 -2 -11 -8 -11 -14 0
-13 13 3 29 10 11 9 13 -2 9 -8 -2 -19 -12 -25 -21 -8 -12 -4 -20 17 -37 15
-12 27 -26 27 -33 0 -6 -7 -2 -15 9 -14 18 -16 18 -29 1 -13 -17 -14 -17 -20
0 -6 14 -9 15 -15 4 -6 -8 -11 -9 -15 -3 -10 16 13 25 29 12 8 -7 15 -7 19 -1
4 5 -1 14 -11 19 -15 9 -14 13 10 41 14 17 36 49 48 71 12 21 27 36 33 33 6
-4 6 -8 -2 -11z m-917 -76 l36 -48 -22 -24 c-27 -29 -35 -30 -35 -6 0 11 7 18
20 18 10 -1 21 5 23 12 4 9 -3 12 -19 9 -12 -2 -17 -2 -10 0 6 3 12 8 12 13 0
19 -22 21 -46 5 -14 -9 -28 -15 -30 -12 -2 2 7 10 21 17 14 7 25 17 25 22 0
12 -7 10 -38 -8 -19 -11 -22 -12 -9 -1 19 16 23 37 5 37 -6 0 -8 3 -5 6 4 4
14 1 24 -7 15 -12 16 -12 9 6 -9 23 -8 23 39 -39z m3 29 c-3 -3 -9 2 -12 12
-6 14 -5 15 5 6 7 -7 10 -15 7 -18z m111 -149 c9 -10 7 -19 -9 -37 -10 -13
-19 -20 -20 -16 0 5 7 15 15 24 8 8 12 19 9 25 -4 7 -14 1 -26 -13 l-19 -24
12 28 c14 30 21 33 38 13z m32 -25 c-5 -9 -17 -25 -26 -36 -10 -12 -9 -6 4 16
16 28 18 38 8 49 -10 12 -9 12 5 1 13 -9 15 -18 9 -30z m604 -16 c17 -27 17
-28 1 -16 -15 13 -19 13 -27 0 -5 -9 -9 -10 -9 -2 0 6 4 14 10 18 5 3 6 13 3
23 -8 21 -2 15 22 -23z m-49 10 c-18 -14 -18 -15 -2 -40 10 -15 15 -29 13 -32
-3 -3 -13 10 -22 28 -16 31 -16 33 1 46 10 7 20 13 23 13 3 0 -3 -7 -13 -15z
m-478 -67 c-6 -15 -14 -31 -19 -34 -5 -3 -4 7 1 21 13 33 13 48 0 40 -5 -3
-10 -2 -10 3 0 5 -12 8 -27 6 -16 -2 -20 -1 -10 2 14 4 16 9 7 20 -7 7 6 4 28
-8 37 -21 39 -24 30 -50z m47 33 c-19 -8 -19 -8 3 -15 23 -8 27 -22 13 -45 -5
-8 -11 -9 -15 -3 -3 6 -2 13 4 17 11 7 4 25 -9 25 -4 0 -13 -10 -19 -22 -10
-21 -11 -20 -5 7 8 40 11 45 31 44 14 0 13 -2 -3 -8z m140 -21 c3 -6 -1 -7 -9
-4 -18 7 -21 14 -7 14 6 0 13 -4 16 -10z m272 -10 c10 -13 8 -16 -6 -16 -13 0
-17 6 -13 19 2 10 5 16 6 15 1 -2 7 -10 13 -18z m-492 -12 c-4 -10 -14 -14
-26 -11 -19 5 -19 6 3 18 27 14 30 13 23 -7z m381 -12 c0 -23 -3 -30 -10 -23
-15 13 -17 57 -2 57 6 0 11 -15 12 -34z m74 19 c0 -8 -7 -15 -15 -15 -13 0
-14 3 -3 15 16 18 18 18 18 0z m-336 -34 c-4 -17 -9 -30 -11 -27 -3 2 -2 19 2
36 4 17 9 30 11 27 2 -2 1 -18 -2 -36z m50 33 c8 -3 12 -12 9 -20 -4 -10 0
-13 13 -8 18 5 18 5 2 -6 -10 -6 -18 -19 -18 -28 0 -11 -3 -13 -8 -6 -4 6 -14
14 -22 17 -12 4 -11 6 3 6 10 1 15 6 12 11 -4 6 -11 7 -17 4 -7 -4 -8 -2 -4 5
4 6 12 9 17 6 5 -4 9 -2 9 4 0 5 -8 12 -17 14 -10 3 -13 5 -6 6 6 0 18 -2 27
-5z m173 0 c-3 -3 -12 -4 -19 -1 -8 3 -5 6 6 6 11 1 17 -2 13 -5z m76 -13 c3
-13 1 -18 -9 -14 -7 2 -10 11 -7 19 7 19 10 18 16 -5z m-186 -43 c-2 -13 -4
-5 -4 17 -1 22 1 32 4 23 2 -10 2 -28 0 -40z m110 23 c0 -11 -5 -18 -9 -15 -4
3 -5 11 -1 19 7 21 12 19 10 -4z"/>
<path d="M50 976 c0 -20 40 -146 57 -181 25 -50 55 -75 95 -82 30 -4 42 -13
55 -37 100 -194 298 -369 503 -445 313 -116 614 -84 892 94 118 76 236 201
306 326 28 50 37 57 70 63 38 6 78 39 101 83 10 20 50 166 51 185 0 4 -36 -12
-80 -34 -74 -37 -88 -41 -165 -43 -102 -2 -127 -16 -160 -90 -34 -78 -79 -141
-153 -212 -78 -77 -158 -125 -277 -166 -83 -30 -99 -32 -220 -32 -72 1 -155 7
-185 14 -74 18 -204 80 -271 130 -78 60 -166 165 -207 249 -19 40 -44 79 -55
87 -13 9 -45 15 -77 15 -30 0 -74 5 -97 10 -50 12 -149 56 -158 70 -9 15 -25
12 -25 -4z m320 -231 c-30 -17 -40 -18 -40 -6 0 10 22 18 50 19 8 1 4 -5 -10
-13z m30 -15 c0 -5 -4 -10 -10 -10 -5 0 -10 -4 -10 -10 0 -5 8 -7 18 -4 14 5
14 3 -2 -10 -34 -27 -62 -17 -33 13 10 10 9 11 -5 6 -27 -10 -22 4 5 15 30 12
37 12 37 0z m1475 0 c19 -8 19 -9 1 -9 -15 -1 -16 -4 -6 -16 15 -18 10 -18
-24 -5 -14 5 -26 16 -26 25 0 16 23 19 55 5z m-1447 -63 c5 -22 -35 -42 -54
-26 -19 16 -18 24 9 37 27 13 41 10 45 -11z m1427 13 c11 -5 14 -9 6 -9 -8 -1
-11 -7 -7 -17 4 -10 1 -14 -6 -11 -7 2 -12 11 -10 21 2 9 -2 16 -8 16 -6 0 -8
-4 -5 -10 3 -5 1 -10 -6 -10 -8 0 -6 -6 4 -18 23 -25 21 -35 -5 -26 -21 6 -22
5 -8 -11 14 -17 13 -18 -17 -12 -18 3 -35 2 -38 -3 -3 -6 5 -10 19 -10 27 0
36 -23 14 -36 -8 -5 -9 -2 -5 10 6 14 3 16 -13 11 -13 -4 -22 -1 -26 9 -8 22
14 46 34 39 15 -6 16 -5 2 12 -14 17 -13 18 9 12 18 -4 21 -3 12 6 -15 15 -14
30 1 21 8 -5 9 -2 5 9 -7 19 14 22 48 7z m-1405 -38 c0 -4 -13 -16 -30 -25
-35 -21 -41 -7 -7 16 25 18 37 21 37 9z m18 -33 c-4 -11 -58 -23 -58 -13 0 5
40 22 53 23 5 1 7 -4 5 -10z m-22 -35 c-6 -15 -3 -15 20 1 26 17 27 17 22 -3
-4 -15 -2 -19 8 -15 21 8 17 -1 -12 -28 l-27 -24 5 28 c4 19 2 25 -4 19 -7 -7
-15 -7 -23 1 -14 13 -9 37 7 37 6 0 7 -7 4 -16z m1320 -61 c-7 -7 -56 24 -56
36 0 20 14 18 37 -5 14 -14 23 -28 19 -31z m-1241 -3 c-10 -11 -23 -20 -28
-20 -6 0 0 11 13 25 27 29 42 25 15 -5z m1197 13 c24 -22 23 -37 -3 -30 -17 4
-19 3 -10 -6 14 -14 15 -30 1 -22 -5 3 -10 1 -10 -5 0 -6 -4 -9 -9 -5 -5 3
-11 -3 -13 -12 -3 -14 -8 -11 -21 14 -18 33 -8 54 13 28 7 -8 17 -15 23 -15 5
0 3 8 -6 18 -23 25 -21 35 5 26 20 -6 21 -5 9 10 -18 21 -3 21 21 -1z m-1165
-24 c-4 -16 -3 -18 9 -8 10 8 14 8 14 0 0 -6 6 -11 13 -11 16 -1 66 -39 50
-40 -6 0 -15 -9 -18 -20 -3 -11 -11 -20 -17 -20 -6 0 -3 11 6 25 15 23 15 25
-5 36 -19 10 -20 8 -14 -10 8 -25 -20 -41 -38 -21 -10 10 -8 12 6 7 13 -5 17
-1 17 20 0 25 -1 25 -18 10 -25 -23 -31 -21 -26 6 2 12 2 16 -2 10 -3 -7 -11
-13 -17 -13 -6 0 0 11 13 25 29 30 34 31 27 4z m1084 -50 c16 -16 18 -23 8
-35 -16 -19 -21 -18 -43 12 -15 22 -16 28 -5 35 18 11 16 12 40 -12z m-982
-43 c-7 -14 -16 -26 -21 -26 -5 0 -1 13 8 30 21 35 30 33 13 -4z m943 9 c9
-20 9 -28 -1 -38 -10 -9 -16 -7 -32 12 -10 13 -19 28 -18 35 0 6 7 1 16 -11
21 -31 37 -29 17 2 -10 16 -12 25 -5 25 6 0 17 -11 23 -25z m-893 -4 c19 -16
21 -23 11 -40 -7 -14 -7 -21 0 -21 5 0 10 3 10 8 1 25 17 32 46 21 32 -14 39
-16 54 -18 6 0 2 -11 -10 -23 -15 -16 -17 -24 -8 -30 9 -5 8 -8 -5 -8 -15 0
-17 5 -12 30 7 34 -10 42 -20 10 -3 -11 -11 -20 -16 -20 -6 0 -5 8 1 20 6 11
8 25 4 31 -4 6 -11 1 -18 -13 -18 -35 -41 -30 -40 10 2 36 -11 43 -21 12 -3
-11 -10 -20 -14 -20 -4 0 -3 16 3 35 6 19 11 35 12 35 0 0 11 -9 23 -19z m855
-50 c-8 -9 -34 23 -34 43 0 18 2 17 19 -9 10 -16 17 -32 15 -34z m-31 -4 c6
-22 6 -22 -14 2 -22 27 -26 49 -5 32 8 -6 16 -22 19 -34z m-31 8 c13 -28 -1
-53 -22 -40 -18 11 -29 49 -16 57 18 13 26 9 38 -17z m-69 -64 c-3 -5 -42 42
-43 52 0 12 18 8 23 -5 3 -8 6 -4 8 7 1 11 5 5 8 -15 4 -19 6 -37 4 -39z
m-535 23 c3 -27 -13 -48 -32 -41 -19 7 -21 38 -4 55 16 16 32 10 36 -14z m474
1 c-2 -15 0 -25 7 -25 7 0 9 5 6 10 -3 6 -1 10 4 10 14 0 14 -27 1 -35 -6 -4
-17 -2 -24 4 -10 9 -15 8 -20 -4 -9 -24 -35 -17 -42 11 -8 32 9 52 29 35 12
-9 16 -8 21 4 9 25 24 17 18 -10z m-440 -3 c-10 -3 -10 -7 0 -20 10 -12 10
-14 1 -8 -8 4 -13 1 -13 -8 0 -9 -5 -16 -10 -16 -6 0 -8 11 -4 28 9 38 14 43
27 35 8 -5 8 -8 -1 -11z m60 -28 c-7 -38 -22 -39 -20 0 1 22 5 33 13 30 7 -3
10 -16 7 -30z m288 -6 c0 -9 6 -19 13 -21 7 -3 5 -6 -5 -6 -10 -1 -18 4 -18
11 0 6 -9 3 -21 -8 -17 -16 -22 -16 -29 -4 -15 23 -12 50 6 57 9 3 20 0 25 -8
7 -11 9 -9 9 6 0 17 2 17 10 5 5 -8 10 -22 10 -32z m-244 15 c0 -10 -5 -21
-11 -25 -6 -5 -4 -12 5 -18 13 -8 12 -10 -2 -10 -14 0 -18 8 -18 35 0 23 5 35
14 35 8 0 13 -8 12 -17z m38 -4 c-18 -20 -18 -21 1 -36 20 -15 20 -15 0 -11
-11 2 -21 11 -23 21 -4 20 14 47 31 47 5 0 2 -9 -9 -21z m46 -9 c5 0 11 8 13
18 3 9 5 -1 6 -23 0 -34 -1 -37 -11 -20 -11 19 -11 19 -19 0 -5 -14 -7 -9 -7
20 0 22 2 32 5 23 2 -10 8 -18 13 -18z m53 -18 c-3 -12 -9 -22 -14 -22 -11 0
-12 54 -2 64 11 11 23 -19 16 -42z m27 11 c0 -23 -4 -33 -9 -28 -9 9 -4 65 5
65 2 0 4 -17 4 -37z"/>
<path d="M394 665 c-17 -13 -17 -14 -2 -15 9 0 20 5 23 11 11 17 0 20 -21 4z"/>
<path d="M1660 470 c0 -5 5 -10 11 -10 5 0 7 5 4 10 -3 6 -8 10 -11 10 -2 0
-4 -4 -4 -10z"/>
<path d="M1610 450 c0 -5 5 -10 11 -10 5 0 7 5 4 10 -3 6 -8 10 -11 10 -2 0
-4 -4 -4 -10z"/>
<path d="M1480 339 c0 -5 5 -7 10 -4 6 3 10 8 10 11 0 2 -4 4 -10 4 -5 0 -10
-5 -10 -11z"/>
<path d="M867 315 c-4 -8 -2 -17 3 -20 6 -4 10 -4 10 -1 0 2 3 11 6 20 3 9 2
16 -4 16 -5 0 -12 -7 -15 -15z"/>
<path d="M1310 318 c0 -7 5 -20 10 -28 8 -12 10 -11 10 7 0 12 -4 25 -10 28
-5 3 -10 0 -10 -7z"/>
<path d="M1220 298 c0 -7 5 -20 10 -28 8 -12 10 -9 10 13 0 15 -4 27 -10 27
-5 0 -10 -6 -10 -12z"/>
</g>
</svg>
